<?xml version="1.0" encoding="UTF-8"?>
<svg xmlns="http://www.w3.org/2000/svg" width="800" height="450" viewBox="0 0 800 450" fill="none">
  <!-- Background -->
  <rect width="800" height="450" fill="#f1f5f9"/>
  
  <!-- Advanced Labeling Machine -->
  
  <!-- Main Machine Frame -->
  <rect x="120" y="130" width="560" height="220" rx="8" fill="#cbd5e1"/>
  <rect x="130" y="140" width="540" height="200" rx="6" fill="#e2e8f0"/>
  
  <!-- Label Roll Station 1 -->
  <circle cx="180" cy="180" r="30" fill="#f8fafc"/>
  <circle cx="180" cy="180" r="25" fill="#e2e8f0"/>
  <circle cx="180" cy="180" r="5" fill="#475569"/>
  <rect x="165" y="170" width="30" height="5" rx="1" fill="#22c55e"/>
  <rect x="165" y="175" width="30" height="5" rx="1" fill="#22c55e"/>
  <rect x="165" y="180" width="30" height="5" rx="1" fill="#22c55e"/>
  
  <!-- Label Roll Station 2 -->
  <circle cx="180" cy="250" r="30" fill="#f8fafc"/>
  <circle cx="180" cy="250" r="25" fill="#e2e8f0"/>
  <circle cx="180" cy="250" r="5" fill="#475569"/>
  <rect x="165" y="240" width="30" height="5" rx="1" fill="#3b82f6"/>
  <rect x="165" y="245" width="30" height="5" rx="1" fill="#3b82f6"/>
  <rect x="165" y="250" width="30" height="5" rx="1" fill="#3b82f6"/>
  
  <!-- Label Application Station -->
  <rect x="300" y="160" width="200" height="120" rx="5" fill="#475569"/>
  <rect x="310" y="170" width="180" height="100" rx="3" fill="#334155"/>
  
  <!-- Applicator Heads -->
  <rect x="330" y="150" width="20" height="20" rx="2" fill="#1e293b"/>
  <rect x="380" y="150" width="20" height="20" rx="2" fill="#1e293b"/>
  <rect x="430" y="150" width="20" height="20" rx="2" fill="#1e293b"/>
  
  <!-- Servo Motors -->
  <circle cx="340" cy="130" r="15" fill="#64748b"/>
  <circle cx="390" cy="130" r="15" fill="#64748b"/>
  <circle cx="440" cy="130" r="15" fill="#64748b"/>
  <rect x="335" y="125" width="10" height="10" rx="1" fill="#334155"/>
  <rect x="385" y="125" width="10" height="10" rx="1" fill="#334155"/>
  <rect x="435" y="125" width="10" height="10" rx="1" fill="#334155"/>
  
  <!-- Product Feeding Conveyor -->
  <rect x="250" y="320" width="300" height="30" rx="3" fill="#94a3b8"/>
  
  <!-- Bottles with Labels -->
  <path d="M270 280V350H290V280L285 270L280 265L275 270L270 280Z" fill="#bfdbfe"/>
  <rect x="270" y="270" width="20" height="30" rx="2" fill="#22c55e"/>
  <text x="275" y="290" font-family="Arial" font-size="6" font-weight="bold" fill="#f8fafc">ORGANIC</text>
  
  <path d="M320 280V350H340V280L335 270L330 265L325 270L320 280Z" fill="#bfdbfe"/>
  <rect x="320" y="270" width="20" height="30" rx="2" fill="#3b82f6"/>
  <rect x="320" y="250" width="20" height="15" rx="1" fill="#ef4444"/>
  <text x="325" y="290" font-family="Arial" font-size="6" font-weight="bold" fill="#f8fafc">PREMIUM</text>
  
  <path d="M370 280V350H390V280L385 270L380 265L375 270L370 280Z" fill="#bfdbfe"/>
  <rect x="370" y="270" width="20" height="30" rx="2" fill="#22c55e"/>
  <rect x="370" y="250" width="20" height="15" rx="1" fill="#fbbf24"/>
  <text x="375" y="290" font-family="Arial" font-size="6" font-weight="bold" fill="#1e293b">NATURAL</text>
  
  <path d="M420 280V350H440V280L435 270L430 265L425 270L420 280Z" fill="#bfdbfe"/>
  <rect x="420" y="270" width="20" height="30" rx="2" fill="#3b82f6"/>
  <rect x="420" y="250" width="20" height="15" rx="1" fill="#ef4444"/>
  <text x="425" y="290" font-family="Arial" font-size="6" font-weight="bold" fill="#f8fafc">CLASSIC</text>
  
  <path d="M470 280V350H490V280L485 270L480 265L475 270L470 280Z" fill="#bfdbfe"/>
  <rect x="470" y="270" width="20" height="30" rx="2" fill="#22c55e"/>
  <text x="475" y="290" font-family="Arial" font-size="6" font-weight="bold" fill="#f8fafc">ECO</text>
  
  <!-- Vision System -->
  <rect x="580" y="160" width="80" height="80" rx="5" fill="#334155"/>
  <rect x="590" y="170" width="60" height="60" rx="3" fill="#1e293b"/>
  <!-- Camera -->
  <circle cx="620" cy="200" r="20" fill="#0ea5e9"/>
  <circle cx="620" cy="200" r="15" fill="#0c4a6e"/>
  <circle cx="620" cy="200" r="8" fill="#1e293b"/>
  <!-- LED Ring -->
  <circle cx="610" cy="190" r="3" fill="#f8fafc"/>
  <circle cx="630" cy="190" r="3" fill="#f8fafc"/>
  <circle cx="610" cy="210" r="3" fill="#f8fafc"/>
  <circle cx="630" cy="210" r="3" fill="#f8fafc"/>
  
  <!-- Control Panel -->
  <rect x="140" y="280" width="90" height="80" rx="5" fill="#334155"/>
  <rect x="150" y="290" width="70" height="60" rx="3" fill="#1e293b"/>
  <!-- Touchscreen -->
  <rect x="160" y="300" width="50" height="30" rx="2" fill="#0ea5e9"/>
  <text x="165" y="320" font-family="Arial" font-size="8" fill="#f8fafc">SPEED: 6000/h</text>
  <!-- Status Indicators -->
  <circle cx="170" cy="340" r="5" fill="#22c55e"/>
  <circle cx="185" cy="340" r="5" fill="#fbbf24"/>
  <circle cx="200" cy="340" r="5" fill="#64748b"/>
  
  <!-- Label Path Guides -->
  <path d="M210 180L300 200" stroke="#22c55e" stroke-width="3" fill="none" stroke-dasharray="5 3"/>
  <path d="M210 250L300 230" stroke="#3b82f6" stroke-width="3" fill="none" stroke-dasharray="5 3"/>
  
  <!-- Waste Matrix Rewinder -->
  <circle cx="520" cy="300" r="20" fill="#64748b"/>
  <circle cx="520" cy="300" r="15" fill="#475569"/>
  <circle cx="520" cy="300" r="3" fill="#1e293b"/>
  
  <!-- Output Conveyor -->
  <rect x="520" y="380" width="200" height="20" rx="3" fill="#64748b"/>
  <rect x="525" y="380" width="190" height="3" fill="#475569"/>
  <rect x="525" y="397" width="190" height="3" fill="#475569"/>
  
  <!-- Finished Products on Output -->
  <rect x="540" y="360" width="15" height="20" rx="2" fill="#f8fafc"/>
  <rect x="540" y="360" width="15" height="8" rx="1" fill="#22c55e"/>
  
  <rect x="570" y="360" width="15" height="20" rx="2" fill="#f8fafc"/>
  <rect x="570" y="360" width="15" height="8" rx="1" fill="#3b82f6"/>
  <rect x="570" y="350" width="15" height="6" rx="1" fill="#ef4444"/>
  
  <rect x="600" y="360" width="15" height="20" rx="2" fill="#f8fafc"/>
  <rect x="600" y="360" width="15" height="8" rx="1" fill="#22c55e"/>
  <rect x="600" y="350" width="15" height="6" rx="1" fill="#fbbf24"/>
  
  <!-- Machine Label -->
  <rect x="250" y="410" width="300" height="30" rx="5" fill="#1e293b"/>
  <text x="290" y="432" font-family="Arial" font-size="16" font-weight="bold" fill="#f8fafc">BERKO ADVANCED LABELING SYSTEM</text>
</svg>