<?xml version="1.0" encoding="UTF-8"?>
<svg xmlns="http://www.w3.org/2000/svg" width="500" height="380" viewBox="0 0 500 380" fill="none">
  <!-- Background -->
  <rect width="500" height="380" fill="#f8fafc"/>
  
  <!-- Roll Label Applicator -->
  
  <!-- Main Machine Frame -->
  <rect x="100" y="140" width="300" height="140" rx="8" fill="#cbd5e1"/>
  <rect x="110" y="150" width="280" height="120" rx="6" fill="#e2e8f0"/>
  
  <!-- Label Roll -->
  <circle cx="150" cy="180" r="25" fill="#f8fafc"/>
  <circle cx="150" cy="180" r="20" fill="#e2e8f0"/>
  <circle cx="150" cy="180" r="5" fill="#475569"/>
  
  <!-- Labels on Roll -->
  <rect x="130" y="170" width="15" height="8" rx="1" fill="#22c55e"/>
  <rect x="130" y="180" width="15" height="8" rx="1" fill="#22c55e"/>
  <rect x="130" y="190" width="15" height="8" rx="1" fill="#22c55e"/>
  
  <!-- Label Feeding Path -->
  <path d="M175 180L220 180L250 200L280 180" stroke="#22c55e" stroke-width="4" fill="none"/>
  
  <!-- Label Applicator Head -->
  <rect x="280" y="170" width="60" height="40" rx="5" fill="#475569"/>
  <rect x="290" y="180" width="40" height="20" rx="3" fill="#334155"/>
  
  <!-- Application Roller -->
  <circle cx="310" cy="190" r="15" fill="#94a3b8"/>
  <circle cx="310" cy="190" r="10" fill="#64748b"/>
  <circle cx="310" cy="190" r="3" fill="#1e293b"/>
  
  <!-- Servo Motor -->
  <rect x="350" y="170" width="40" height="30" rx="3" fill="#1e293b"/>
  <rect x="360" y="180" width="20" height="10" rx="1" fill="#334155"/>
  <circle cx="370" cy="185" r="5" fill="#64748b"/>
  <text x="355" y="165" font-family="Arial" font-size="8" fill="#1e293b">SERVO</text>
  
  <!-- Product Guide -->
  <rect x="250" y="220" width="80" height="30" rx="3" fill="#94a3b8"/>
  <rect x="260" y="230" width="60" height="10" rx="2" fill="#64748b"/>
  
  <!-- Bottles Being Labeled -->
  <path d="M190 250V320H210V250L205 240L200 235L195 240L190 250Z" fill="#bfdbfe"/>
  <rect x="190" y="240" width="20" height="25" rx="2" fill="#22c55e"/>
  <text x="195" y="255" font-family="Arial" font-size="6" fill="#f8fafc">BRAND</text>
  
  <path d="M240 250V320H260V250L255 240L250 235L245 240L240 250Z" fill="#bfdbfe"/>
  <rect x="240" y="240" width="20" height="25" rx="2" fill="#22c55e"/>
  <text x="245" y="255" font-family="Arial" font-size="6" fill="#f8fafc">BRAND</text>
  
  <path d="M290 250V320H310V250L305 240L300 235L295 240L290 250Z" fill="#bfdbfe"/>
  <rect x="290" y="240" width="20" height="25" rx="2" fill="#22c55e"/>
  <text x="295" y="255" font-family="Arial" font-size="6" fill="#f8fafc">BRAND</text>
  
  <path d="M340 250V320H360V250L355 240L350 235L345 240L340 250Z" fill="#bfdbfe"/>
  <rect x="340" y="240" width="20" height="25" rx="2" fill="#22c55e"/>
  <text x="345" y="255" font-family="Arial" font-size="6" fill="#f8fafc">BRAND</text>
  
  <!-- Peeling System -->
  <rect x="200" y="170" width="30" height="20" rx="2" fill="#64748b"/>
  <rect x="210" y="180" width="10" height="5" rx="1" fill="#1e293b"/>
  
  <!-- Waste Matrix Rewind -->
  <circle cx="370" cy="220" r="15" fill="#94a3b8"/>
  <circle cx="370" cy="220" r="10" fill="#64748b"/>
  <circle cx="370" cy="220" r="3" fill="#475569"/>
  
  <!-- Label Position Sensor -->
  <rect x="320" y="160" width="15" height="10" rx="2" fill="#ef4444"/>
  <circle cx="327" cy="165" r="2" fill="#fbbf24"/>
  
  <!-- Control Panel -->
  <rect x="120" y="190" width="60" height="60" rx="5" fill="#334155"/>
  <rect x="130" y="200" width="40" height="40" rx="3" fill="#1e293b"/>
  
  <!-- Speed Display -->
  <rect x="135" y="210" width="30" height="15" rx="2" fill="#0ea5e9"/>
  <text x="140" y="220" font-family="Arial" font-size="8" fill="#f8fafc">6000/h</text>
  
  <!-- Position Control -->
  <rect x="135" y="230" width="30" height="10" rx="1" fill="#22c55e"/>
  <text x="140" y="238" font-family="Arial" font-size="7" fill="#1e293b">POS OK</text>
  
  <!-- Conveyor System -->
  <rect x="120" y="330" width="260" height="20" rx="3" fill="#64748b"/>
  <rect x="125" y="330" width="250" height="3" fill="#475569"/>
  <rect x="125" y="347" width="250" height="3" fill="#475569"/>
  
  <!-- Label Unwinding Mechanism -->
  <rect x="175" y="165" width="20" height="30" rx="2" fill="#94a3b8"/>
  <circle cx="185" cy="180" r="5" fill="#64748b"/>
  
  <!-- Support Structure -->
  <rect x="150" y="290" width="8" height="40" fill="#475569"/>
  <rect x="220" y="290" width="8" height="40" fill="#475569"/>
  <rect x="290" y="290" width="8" height="40" fill="#475569"/>
  <rect x="360" y="290" width="8" height="40" fill="#475569"/>
  
  <!-- Base Platform -->
  <rect x="120" y="350" width="260" height="15" rx="3" fill="#64748b"/>
  
  <!-- Machine Label -->
  <rect x="180" y="365" width="140" height="15" rx="3" fill="#1e293b"/>
  <text x="195" y="376" font-family="Arial" font-size="10" font-weight="bold" fill="#22c55e">RULO ETİKET UYGULAMA</text>
</svg>