<?xml version="1.0" encoding="UTF-8"?>
<svg xmlns="http://www.w3.org/2000/svg" width="800" height="450" viewBox="0 0 800 450" fill="none">
  <!-- Background -->
  <rect width="800" height="450" fill="#f1f5f9"/>
  
  <!-- Hot Foil Stamping Machine -->
  
  <!-- Main Machine Frame -->
  <rect x="150" y="150" width="500" height="200" rx="8" fill="#cbd5e1"/>
  <rect x="160" y="160" width="480" height="180" rx="6" fill="#e2e8f0"/>
  
  <!-- Foil Feeding System -->
  <rect x="200" y="120" width="150" height="40" rx="5" fill="#475569"/>
  <rect x="210" y="130" width="130" height="20" rx="3" fill="#334155"/>
  
  <!-- Foil Roll -->
  <circle cx="180" cy="140" r="25" fill="#ffd700"/>
  <circle cx="180" cy="140" r="20" fill="#ffed4e"/>
  <circle cx="180" cy="140" r="5" fill="#475569"/>
  
  <!-- Heating Plate -->
  <rect x="300" y="180" width="200" height="60" rx="5" fill="#64748b"/>
  <rect x="310" y="190" width="180" height="40" rx="3" fill="#475569"/>
  <!-- Heating Elements -->
  <path d="M320 210L330 200L340 210L350 200L360 210L370 200L380 210L390 200L400 210L410 200L420 210L430 200L440 210L450 200L460 210L470 200L480 210" stroke="#ef4444" stroke-width="3" fill="none"/>
  
  <!-- Stamping Press -->
  <rect x="350" y="100" width="100" height="80" rx="5" fill="#334155"/>
  <rect x="370" y="110" width="60" height="60" rx="3" fill="#1e293b"/>
  <!-- Press Cylinder -->
  <rect x="390" y="80" width="20" height="40" rx="2" fill="#64748b"/>
  
  <!-- Product Platform -->
  <rect x="300" y="250" width="200" height="30" rx="3" fill="#94a3b8"/>
  
  <!-- Products Being Stamped -->
  <rect x="320" y="270" width="40" height="60" rx="3" fill="#f8fafc"/>
  <rect x="320" y="270" width="40" height="15" rx="2" fill="#ffd700"/>
  <text x="330" y="285" font-family="Arial" font-size="8" font-weight="bold" fill="#1e293b">LUXURY</text>
  
  <rect x="380" y="270" width="40" height="60" rx="3" fill="#f8fafc"/>
  <rect x="380" y="270" width="40" height="15" rx="2" fill="#c0392b"/>
  <text x="390" y="285" font-family="Arial" font-size="8" font-weight="bold" fill="#f8fafc">BRAND</text>
  
  <rect x="440" y="270" width="40" height="60" rx="3" fill="#f8fafc"/>
  <rect x="440" y="270" width="40" height="15" rx="2" fill="#3498db"/>
  <text x="450" y="285" font-family="Arial" font-size="8" font-weight="bold" fill="#f8fafc">PREMIUM</text>
  
  <!-- Control Panel -->
  <rect x="550" y="180" width="80" height="120" rx="5" fill="#334155"/>
  <rect x="560" y="190" width="60" height="80" rx="3" fill="#1e293b"/>
  <!-- Display -->
  <rect x="570" y="200" width="40" height="30" rx="2" fill="#0ea5e9"/>
  <text x="575" y="220" font-family="Arial" font-size="8" fill="#f8fafc">TEMP: 180°C</text>
  <!-- Buttons -->
  <circle cx="580" cy="250" r="8" fill="#22c55e"/>
  <circle cx="600" cy="250" r="8" fill="#ef4444"/>
  <rect x="570" y="270" width="40" height="5" rx="1" fill="#64748b"/>
  <rect x="570" y="280" width="40" height="5" rx="1" fill="#64748b"/>
  
  <!-- Foil Path -->
  <path d="M205 140L320 140L350 160L370 190" stroke="#ffd700" stroke-width="4" fill="none" stroke-dasharray="5 5"/>
  
  <!-- Finished Products Conveyor -->
  <rect x="520" y="330" width="200" height="20" rx="3" fill="#64748b"/>
  <rect x="525" y="330" width="190" height="3" fill="#475569"/>
  <rect x="525" y="347" width="190" height="3" fill="#475569"/>
  
  <!-- Finished Products -->
  <rect x="540" y="310" width="30" height="20" rx="2" fill="#f8fafc"/>
  <rect x="540" y="310" width="30" height="5" rx="1" fill="#ffd700"/>
  
  <rect x="580" y="310" width="30" height="20" rx="2" fill="#f8fafc"/>
  <rect x="580" y="310" width="30" height="5" rx="1" fill="#c0392b"/>
  
  <rect x="620" y="310" width="30" height="20" rx="2" fill="#f8fafc"/>
  <rect x="620" y="310" width="30" height="5" rx="1" fill="#3498db"/>
  
  <!-- Machine Label -->
  <rect x="280" y="380" width="240" height="30" rx="5" fill="#1e293b"/>
  <text x="310" y="402" font-family="Arial" font-size="16" font-weight="bold" fill="#ffd700">BERKO HOT FOIL STAMPING</text>
</svg>