<?xml version="1.0" encoding="UTF-8"?>
<svg xmlns="http://www.w3.org/2000/svg" width="500" height="380" viewBox="0 0 500 380" fill="none">
  <!-- Background -->
  <rect width="500" height="380" fill="#f8fafc"/>
  
  <!-- Rotary Can Filling Machine -->
  
  <!-- Main Machine Frame -->
  <rect x="80" y="150" width="340" height="150" rx="8" fill="#cbd5e1"/>
  <rect x="90" y="160" width="320" height="130" rx="6" fill="#e2e8f0"/>
  
  <!-- Central Rotary System -->
  <circle cx="250" cy="200" r="60" fill="#475569"/>
  <circle cx="250" cy="200" r="50" fill="#334155"/>
  <circle cx="250" cy="200" r="10" fill="#1e293b"/>
  
  <!-- Rotary Positions -->
  <circle cx="250" cy="140" r="12" fill="#94a3b8"/>
  <circle cx="310" cy="200" r="12" fill="#94a3b8"/>
  <circle cx="250" cy="260" r="12" fill="#94a3b8"/>
  <circle cx="190" cy="200" r="12" fill="#94a3b8"/>
  <circle cx="285" cy="165" r="12" fill="#94a3b8"/>
  <circle cx="285" cy="235" r="12" fill="#94a3b8"/>
  <circle cx="215" cy="235" r="12" fill="#94a3b8"/>
  <circle cx="215" cy="165" r="12" fill="#94a3b8"/>
  
  <!-- Filling Heads -->
  <rect x="245" y="125" width="10" height="15" rx="2" fill="#1e293b"/>
  <rect x="305" y="195" width="10" height="15" rx="2" fill="#1e293b"/>
  <rect x="245" y="255" width="10" height="15" rx="2" fill="#1e293b"/>
  <rect x="185" y="195" width="10" height="15" rx="2" fill="#1e293b"/>
  
  <!-- Cans on Rotary -->
  <rect x="242" y="120" width="16" height="20" rx="2" fill="#e2e8f0"/>
  <rect x="302" y="190" width="16" height="20" rx="2" fill="#e2e8f0"/>
  <rect x="242" y="250" width="16" height="20" rx="2" fill="#e2e8f0"/>
  <rect x="182" y="190" width="16" height="20" rx="2" fill="#e2e8f0"/>
  
  <!-- Product in Cans -->
  <rect x="244" y="125" width="12" height="10" rx="1" fill="#fbbf24"/>
  <rect x="304" y="195" width="12" height="10" rx="1" fill="#fbbf24"/>
  <rect x="244" y="255" width="12" height="10" rx="1" fill="#fbbf24"/>
  <rect x="184" y="195" width="12" height="10" rx="1" fill="#fbbf24"/>
  
  <!-- Product Tank -->
  <rect x="180" y="80" width="140" height="50" rx="5" fill="#475569"/>
  <rect x="190" y="90" width="120" height="30" rx="3" fill="#334155"/>
  <rect x="195" y="95" width="110" height="20" rx="2" fill="#fbbf24"/>
  
  <!-- Distribution System -->
  <rect x="240" y="130" width="20" height="20" rx="2" fill="#64748b"/>
  <path d="M250 130L250 110L190 110L210 110L270 110L290 110L250 130" stroke="#475569" stroke-width="4" fill="none"/>
  
  <!-- Motor System -->
  <rect x="350" y="180" width="50" height="40" rx="5" fill="#1e293b"/>
  <rect x="360" y="190" width="30" height="20" rx="2" fill="#334155"/>
  <circle cx="375" cy="200" r="8" fill="#64748b"/>
  <text x="355" y="175" font-family="Arial" font-size="8" fill="#1e293b">MOTOR</text>
  
  <!-- Drive Connection -->
  <path d="M310 200L350 200" stroke="#fbbf24" stroke-width="6" fill="none"/>
  
  <!-- Control Panel -->
  <rect x="100" y="180" width="60" height="80" rx="5" fill="#334155"/>
  <rect x="110" y="190" width="40" height="60" rx="3" fill="#1e293b"/>
  
  <!-- Speed Display -->
  <rect x="115" y="200" width="30" height="20" rx="2" fill="#0ea5e9"/>
  <text x="120" y="215" font-family="Arial" font-size="8" fill="#f8fafc">60RPM</text>
  
  <!-- Production Counter -->
  <rect x="115" y="225" width="30" height="15" rx="2" fill="#22c55e"/>
  <text x="120" y="235" font-family="Arial" font-size="8" fill="#1e293b">10000/h</text>
  
  <!-- Can Input Conveyor -->
  <rect x="50" y="320" width="150" height="20" rx="3" fill="#64748b"/>
  <rect x="55" y="320" width="140" height="3" fill="#475569"/>
  <rect x="55" y="337" width="140" height="3" fill="#475569"/>
  
  <!-- Empty Cans -->
  <rect x="70" y="310" width="12" height="15" rx="1" fill="#e2e8f0"/>
  <rect x="100" y="310" width="12" height="15" rx="1" fill="#e2e8f0"/>
  <rect x="130" y="310" width="12" height="15" rx="1" fill="#e2e8f0"/>
  <rect x="160" y="310" width="12" height="15" rx="1" fill="#e2e8f0"/>
  
  <!-- Can Output Conveyor -->
  <rect x="300" y="320" width="150" height="20" rx="3" fill="#64748b"/>
  <rect x="305" y="320" width="140" height="3" fill="#475569"/>
  <rect x="305" y="337" width="140" height="3" fill="#475569"/>
  
  <!-- Filled Cans -->
  <rect x="320" y="310" width="12" height="15" rx="1" fill="#e2e8f0"/>
  <rect x="320" y="315" width="12" height="8" rx="1" fill="#fbbf24"/>
  <rect x="350" y="310" width="12" height="15" rx="1" fill="#e2e8f0"/>
  <rect x="350" y="315" width="12" height="8" rx="1" fill="#fbbf24"/>
  <rect x="380" y="310" width="12" height="15" rx="1" fill="#e2e8f0"/>
  <rect x="380" y="315" width="12" height="8" rx="1" fill="#fbbf24"/>
  <rect x="410" y="310" width="12" height="15" rx="1" fill="#e2e8f0"/>
  <rect x="410" y="315" width="12" height="8" rx="1" fill="#fbbf24"/>
  
  <!-- Support Structure -->
  <rect x="150" y="300" width="8" height="40" fill="#475569"/>
  <rect x="250" y="300" width="8" height="40" fill="#475569"/>
  <rect x="350" y="300" width="8" height="40" fill="#475569"/>
  
  <!-- Base Platform -->
  <rect x="100" y="340" width="300" height="15" rx="3" fill="#64748b"/>
  
  <!-- Machine Label -->
  <rect x="170" y="355" width="160" height="15" rx="3" fill="#1e293b"/>
  <text x="185" y="366" font-family="Arial" font-size="10" font-weight="bold" fill="#fbbf24">ROTARY TENEKE DOLUM</text>
</svg>