<?xml version="1.0" encoding="UTF-8"?>
<svg xmlns="http://www.w3.org/2000/svg" width="500" height="380" viewBox="0 0 500 380" fill="none">
  <!-- Background -->
  <rect width="500" height="380" fill="#f8fafc"/>
  
  <!-- Servo Controlled Filling Machine -->
  
  <!-- Main Machine Frame -->
  <rect x="80" y="120" width="340" height="170" rx="8" fill="#cbd5e1"/>
  <rect x="90" y="130" width="320" height="150" rx="6" fill="#e2e8f0"/>
  
  <!-- Product Tank -->
  <rect x="160" y="70" width="180" height="60" rx="5" fill="#475569"/>
  <rect x="170" y="80" width="160" height="40" rx="3" fill="#334155"/>
  
  <!-- Liquid in Tank -->
  <rect x="175" y="85" width="150" height="30" rx="2" fill="#3b82f6"/>
  
  <!-- Servo Motor System -->
  <rect x="100" y="150" width="50" height="40" rx="3" fill="#1e293b"/>
  <rect x="110" y="160" width="30" height="20" rx="2" fill="#334155"/>
  <circle cx="125" cy="170" r="8" fill="#64748b"/>
  <text x="105" y="145" font-family="Arial" font-size="8" fill="#1e293b">SERVO</text>
  
  <!-- Precision Cylinder -->
  <rect x="180" y="140" width="140" height="50" rx="4" fill="#94a3b8"/>
  <rect x="190" y="150" width="120" height="30" rx="2" fill="#64748b"/>
  
  <!-- Piston System -->
  <rect x="200" y="155" width="100" height="20" rx="2" fill="#475569"/>
  <rect x="210" y="160" width="80" height="10" rx="1" fill="#334155"/>
  <!-- Piston Head -->
  <rect x="280" y="155" width="15" height="20" rx="2" fill="#1e293b"/>
  
  <!-- Servo Connection -->
  <path d="M150 170L180 165" stroke="#fbbf24" stroke-width="4" fill="none"/>
  
  <!-- Multiple Filling Valves -->
  <rect x="200" y="190" width="12" height="30" rx="2" fill="#1e293b"/>
  <rect x="230" y="190" width="12" height="30" rx="2" fill="#1e293b"/>
  <rect x="260" y="190" width="12" height="30" rx="2" fill="#1e293b"/>
  <rect x="290" y="190" width="12" height="30" rx="2" fill="#1e293b"/>
  
  <!-- Precision Flow Lines -->
  <path d="M206 220L206 250" stroke="#3b82f6" stroke-width="4" fill="none"/>
  <path d="M236 220L236 250" stroke="#3b82f6" stroke-width="4" fill="none"/>
  <path d="M266 220L266 250" stroke="#3b82f6" stroke-width="4" fill="none"/>
  <path d="M296 220L296 250" stroke="#3b82f6" stroke-width="4" fill="none"/>
  
  <!-- Bottles -->
  <path d="M195 260V320H215V260L212 250L206 245L200 250L195 260Z" fill="#f8fafc"/>
  <path d="M195 260V280H215V260L212 250L206 245L200 250L195 260Z" fill="#3b82f6"/>
  
  <path d="M225 260V320H245V260L242 250L236 245L230 250L225 260Z" fill="#f8fafc"/>
  <path d="M225 260V275H245V260L242 250L236 245L230 250L225 260Z" fill="#3b82f6"/>
  
  <path d="M255 260V320H275V260L272 250L266 245L260 250L255 260Z" fill="#f8fafc"/>
  <path d="M255 260V285H275V260L272 250L266 245L260 250L255 260Z" fill="#3b82f6"/>
  
  <path d="M285 260V320H305V260L302 250L296 245L290 250L285 260Z" fill="#f8fafc"/>
  <path d="M285 260V270H305V260L302 250L296 245L290 250L285 260Z" fill="#3b82f6"/>
  
  <!-- Advanced Control Panel -->
  <rect x="340" y="140" width="70" height="100" rx="5" fill="#334155"/>
  <rect x="350" y="150" width="50" height="80" rx="3" fill="#1e293b"/>
  
  <!-- Touchscreen Display -->
  <rect x="360" y="160" width="30" height="25" rx="2" fill="#0ea5e9"/>
  <text x="365" y="175" font-family="Arial" font-size="6" fill="#f8fafc">±0.5%</text>
  <text x="365" y="182" font-family="Arial" font-size="6" fill="#f8fafc">6000/h</text>
  
  <!-- Precision Indicators -->
  <circle cx="365" cy="200" r="4" fill="#22c55e"/>
  <circle cx="375" cy="200" r="4" fill="#22c55e"/>
  <circle cx="385" cy="200" r="4" fill="#22c55e"/>
  <circle cx="395" cy="200" r="4" fill="#fbbf24"/>
  
  <!-- Digital Controls -->
  <rect x="355" y="210" width="40" height="8" rx="1" fill="#64748b"/>
  <rect x="355" y="220" width="40" height="8" rx="1" fill="#64748b"/>
  
  <!-- Encoder Feedback -->
  <circle cx="160" cy="120" r="15" fill="#94a3b8"/>
  <circle cx="160" cy="120" r="10" fill="#64748b"/>
  <circle cx="160" cy="120" r="5" fill="#22c55e"/>
  <text x="145" y="110" font-family="Arial" font-size="8" fill="#1e293b">ENCODER</text>
  
  <!-- Position Sensors -->
  <rect x="320" y="160" width="15" height="10" rx="2" fill="#ef4444"/>
  <circle cx="327" cy="165" r="2" fill="#fbbf24"/>
  
  <!-- Support Structure -->
  <rect x="130" y="290" width="8" height="50" fill="#475569"/>
  <rect x="200" y="290" width="8" height="50" fill="#475569"/>
  <rect x="270" y="290" width="8" height="50" fill="#475569"/>
  <rect x="370" y="290" width="8" height="50" fill="#475569"/>
  
  <!-- Base Platform -->
  <rect x="100" y="340" width="320" height="15" rx="3" fill="#64748b"/>
  
  <!-- Machine Label -->
  <rect x="160" y="355" width="180" height="15" rx="3" fill="#1e293b"/>
  <text x="175" y="366" font-family="Arial" font-size="10" font-weight="bold" fill="#22c55e">SERVO KONTROLLÜ DOLUM</text>
</svg>