<?xml version="1.0" encoding="UTF-8"?>
<svg xmlns="http://www.w3.org/2000/svg" width="500" height="380" viewBox="0 0 500 380" fill="none">
  <!-- Background -->
  <rect width="500" height="380" fill="#f8fafc"/>
  
  <!-- Machine Base -->
  <rect x="80" y="280" width="340" height="50" rx="5" fill="#64748b"/>
  <rect x="100" y="275" width="300" height="10" rx="2" fill="#475569"/>
  
  <!-- Machine Frame -->
  <rect x="110" y="120" width="280" height="155" rx="5" fill="#e2e8f0"/>
  <rect x="120" y="130" width="260" height="135" rx="3" fill="#f1f5f9"/>
  
  <!-- Control Panel -->
  <rect x="350" y="140" width="30" height="80" rx="2" fill="#cbd5e1"/>
  <circle cx="365" cy="160" r="10" fill="#22c55e"/>
  <circle cx="365" cy="185" r="10" fill="#ef4444"/>
  <rect x="355" y="205" width="20" height="5" rx="1" fill="#334155"/>
  
  <!-- Conveyor Belt -->
  <rect x="40" y="330" width="420" height="20" rx="3" fill="#94a3b8"/>
  <rect x="45" y="330" width="410" height="3" fill="#64748b"/>
  <rect x="45" y="347" width="410" height="3" fill="#64748b"/>
  
  <!-- Filling System -->
  <rect x="150" y="90" width="200" height="30" rx="3" fill="#94a3b8"/>
  <rect x="170" y="80" width="10" height="10" fill="#64748b"/>
  <rect x="240" y="80" width="10" height="10" fill="#64748b"/>
  <rect x="310" y="80" width="10" height="10" fill="#64748b"/>
  
  <!-- Filling Nozzles -->
  <rect x="170" y="120" width="10" height="30" fill="#475569"/>
  <rect x="240" y="120" width="10" height="30" fill="#475569"/>
  <rect x="310" y="120" width="10" height="30" fill="#475569"/>
  
  <!-- Bottles -->
  <path d="M165 250V330H185V250L182 240L175 235L168 240L165 250Z" fill="#bfdbfe"/>
  <path d="M165 250V260H185V250L182 240L175 235L168 240L165 250Z" fill="#3b82f6"/>
  
  <path d="M235 250V330H255V250L252 240L245 235L238 240L235 250Z" fill="#bfdbfe"/>
  <path d="M235 250V270H255V250L252 240L245 235L238 240L235 250Z" fill="#3b82f6"/>
  
  <path d="M305 250V330H325V250L322 240L315 235L308 240L305 250Z" fill="#bfdbfe"/>
  <path d="M305 250V265H325V250L322 240L315 235L308 240L305 250Z" fill="#3b82f6"/>
  
  <!-- Machine Label -->
  <rect x="190" y="180" width="120" height="30" rx="4" fill="#cbd5e1"/>
  <text x="200" y="200" font-family="Arial" font-size="14" font-weight="bold" fill="#334155">BERKO DOLUMTİK</text>
  
  <!-- Pipes -->
  <path d="M175 90V80H155V50H140V30H360V50H345V80H320V90" stroke="#64748b" stroke-width="4" fill="none"/>
  <circle cx="175" cy="50" r="5" fill="#0ea5e9"/>
  <circle cx="245" cy="50" r="5" fill="#0ea5e9"/>
  <circle cx="315" cy="50" r="5" fill="#0ea5e9"/>
</svg>