<?xml version="1.0" encoding="UTF-8"?>
<svg xmlns="http://www.w3.org/2000/svg" width="500" height="380" viewBox="0 0 500 380" fill="none">
  <!-- Background -->
  <rect width="500" height="380" fill="#f8fafc"/>
  
  <!-- Volumetric Filling Machine -->
  
  <!-- Main Machine Frame -->
  <rect x="100" y="140" width="300" height="150" rx="8" fill="#cbd5e1"/>
  <rect x="110" y="150" width="280" height="130" rx="6" fill="#e2e8f0"/>
  
  <!-- Volumetric Tank -->
  <rect x="180" y="90" width="140" height="60" rx="5" fill="#475569"/>
  <rect x="190" y="100" width="120" height="40" rx="3" fill="#334155"/>
  <!-- Volume Markings -->
  <rect x="195" y="105" width="30" height="3" rx="1" fill="#f8fafc"/>
  <rect x="195" y="115" width="30" height="3" rx="1" fill="#f8fafc"/>
  <rect x="195" y="125" width="30" height="3" rx="1" fill="#f8fafc"/>
  <text x="200" y="118" font-family="Arial" font-size="8" fill="#f8fafc">500ml</text>
  
  <!-- Liquid in Tank -->
  <rect x="195" y="110" width="110" height="25" rx="2" fill="#3b82f6"/>
  
  <!-- Volumetric Measuring Chamber -->
  <rect x="220" y="160" width="60" height="40" rx="3" fill="#94a3b8"/>
  <rect x="225" y="165" width="50" height="30" rx="2" fill="#64748b"/>
  <!-- Volume Chamber Liquid -->
  <rect x="230" y="170" width="40" height="20" rx="1" fill="#3b82f6"/>
  <!-- Volume Scale -->
  <text x="235" y="185" font-family="Arial" font-size="8" fill="#f8fafc">100ml</text>
  
  <!-- Precision Valve -->
  <rect x="240" y="200" width="20" height="30" rx="2" fill="#1e293b"/>
  <circle cx="250" cy="215" r="5" fill="#ef4444"/>
  
  <!-- Filling Nozzle -->
  <rect x="245" y="230" width="10" height="40" rx="2" fill="#334155"/>
  
  <!-- Liquid Flow -->
  <path d="M250 270L250 300" stroke="#3b82f6" stroke-width="6" fill="none"/>
  
  <!-- Bottle -->
  <path d="M235 310V350H265V310L260 300L250 295L240 300L235 310Z" fill="#f8fafc"/>
  <path d="M235 310V325H265V310L260 300L250 295L240 300L235 310Z" fill="#3b82f6"/>
  
  <!-- Control Panel -->
  <rect x="120" y="170" width="70" height="80" rx="5" fill="#334155"/>
  <rect x="130" y="180" width="50" height="60" rx="3" fill="#1e293b"/>
  
  <!-- Digital Display -->
  <rect x="140" y="190" width="30" height="20" rx="2" fill="#0ea5e9"/>
  <text x="145" y="205" font-family="Arial" font-size="8" fill="#f8fafc">100ml</text>
  
  <!-- Volume Selector -->
  <rect x="135" y="220" width="40" height="15" rx="2" fill="#64748b"/>
  <text x="140" y="230" font-family="Arial" font-size="8" fill="#f8fafc">VOL SET</text>
  
  <!-- Precision Sensor -->
  <rect x="310" y="180" width="60" height="30" rx="3" fill="#94a3b8"/>
  <rect x="320" y="190" width="40" height="10" rx="1" fill="#22c55e"/>
  <text x="325" y="200" font-family="Arial" font-size="8" fill="#1e293b">SENSOR</text>
  
  <!-- Flow Meter -->
  <circle cx="340" cy="230" r="20" fill="#64748b"/>
  <circle cx="340" cy="230" r="15" fill="#475569"/>
  <path d="M335 230L340 225L345 230L340 235L335 230" fill="#22c55e"/>
  
  <!-- Support Structure -->
  <rect x="150" y="290" width="8" height="60" fill="#475569"/>
  <rect x="250" y="290" width="8" height="60" fill="#475569"/>
  <rect x="340" y="290" width="8" height="60" fill="#475569"/>
  
  <!-- Base Platform -->
  <rect x="120" y="350" width="260" height="15" rx="3" fill="#64748b"/>
  
  <!-- Machine Label -->
  <rect x="170" y="365" width="160" height="15" rx="3" fill="#1e293b"/>
  <text x="185" y="376" font-family="Arial" font-size="10" font-weight="bold" fill="#3b82f6">VOLUMETRİK DOLUM</text>
</svg>